<svg xmlns="http://www.w3.org/2000/svg" version="1.1" xmlns:xlink="http://www.w3.org/1999/xlink" xmlns:svgjs="http://svgjs.dev/svgjs" width="1440" height="700" preserveAspectRatio="none" viewBox="0 0 1440 700"><g mask="url(&quot;#SvgjsMask1009&quot;)" fill="none"><rect width="1440" height="700" x="0" y="0" fill="rgba(10, 56, 76, 1)"></rect><path d="M0,516.4C115.478,534.557,232.192,570.753,343.14,533.937C469.179,492.114,619.833,427.167,654.904,299.085C690.822,167.91,558.215,53.7,509.395,-73.24C473.168,-167.438,454.858,-263.168,404.935,-350.879C344.23,-457.533,304.352,-601.084,187.542,-638.71C70.98,-676.256,-41.57,-574.97,-156.09,-531.593C-260.9,-491.894,-377.122,-474.765,-455.861,-395.006C-537.045,-312.771,-599.6,-201.238,-596.255,-85.729C-593.038,25.341,-496.203,105.278,-438.619,200.31C-388.555,282.932,-358.534,379.453,-280.158,435.934C-199.703,493.914,-97.966,500.996,0,516.4" fill="#082d3d"></path><path d="M1440 1146.324C1522.312 1157.772 1597.597 1098.396 1663.493 1047.761 1725.443 1000.158 1765.254 934.038 1804.319 866.379 1847.329 791.887 1918.117 718.097 1902.689 633.475 1887.251 548.799 1792.1680000000001 507.916 1728.421 450.082 1672.7359999999999 399.562 1624.284 339.161 1552.753 316 1480.185 292.503 1400.434 294.958 1328.605 320.624 1258.988 345.5 1205.344 398.922 1159.152 456.64300000000003 1114.368 512.605 1073.9270000000001 575.075 1067.827 646.49 1061.882 716.086 1093.003 781.845 1126.12 843.344 1157.5059999999999 901.6279999999999 1205.5529999999999 944.722 1253.181 990.696 1312.701 1048.149 1358.064 1134.9279999999999 1440 1146.324" fill="#0c435b"></path></g><defs><mask id="SvgjsMask1009"><rect width="1440" height="700" fill="#ffffff"></rect></mask></defs></svg>